{"title":"Bang Bang (2014) 1CD DVDSCR Rip Xvid Mp3[Studio Audio] TeamTNT","uid":11187956,"size":734930777,"categoryP":"video","categoryS":"movies","magnet":"?xt=urn:btih:73df59a4eaa71b26c5b7c2114c952eb03b6b8fd9&amp;dn=Bang+Bang+%282014%29+1CD+DVDSCR+Rip+Xvid+Mp3%5BStudio+Audio%5D+TeamTNT&amp;tr=udp%3A%2F%2Ftracker.openbittorrent.com%3A80&amp;tr=udp%3A%2F%2Fopen.demonii.com%3A1337&amp;tr=udp%3A%2F%2Ftracker.coppersurfer.tk%3A6969&amp;tr=udp%3A%2F%2Fexodus.desync.com%3A6969","seeders":2,"leechers":1,"uploader":"inovai","files":18,"time":1412953453,"description":"Bang Bang (2014) 1CD DVDSCR Rip Xvid Mp3[Studio Audio] TeamTNT \n\nCover:\n  &lt;a href=&quot;\nhttp://forum.primetimeshow.in/viewtopic.php?f=7&amp;t=750&quot; rel=&quot;nofollow&quot; target=&quot;_NEW&quot;&gt;\nhttp://forum.primetimeshow.in/viewtopic.php?f=7&amp;t=750&lt;/a&gt;\n\nScreenshots:\n &lt;a href=&quot;\nhttp://m.primetimeshow.in/share-580A_5437D850.html&quot; rel=&quot;nofollow&quot; target=&quot;_NEW&quot;&gt;\nhttp://m.primetimeshow.in/share-580A_5437D850.html&lt;/a&gt;\n &lt;a href=&quot;\nhttp://m.primetimeshow.in/share-9D0A_5437D850.html&quot; rel=&quot;nofollow&quot; target=&quot;_NEW&quot;&gt;\nhttp://m.primetimeshow.in/share-9D0A_5437D850.html&lt;/a&gt;\n &lt;a href=&quot;\nhttp://m.primetimeshow.in/share-8E96_5437D850.html&quot; rel=&quot;nofollow&quot; target=&quot;_NEW&quot;&gt;\nhttp://m.primetimeshow.in/share-8E96_5437D850.html&lt;/a&gt;\n &lt;a href=&quot;\nhttp://m.primetimeshow.in/share-8509_5437D850.html&quot; rel=&quot;nofollow&quot; target=&quot;_NEW&quot;&gt;\nhttp://m.primetimeshow.in/share-8509_5437D850.html&lt;/a&gt;\n &lt;a href=&quot;\nhttp://m.primetimeshow.in/share-96BC_5437D850.html&quot; rel=&quot;nofollow&quot; target=&quot;_NEW&quot;&gt;\nhttp://m.primetimeshow.in/share-96BC_5437D850.html&lt;/a&gt;\n\nMovie:............Bang Bang \nSource: ..........DVDSCR @ TeamTNT \nYear:.............2014\nQuote:\nGeneral\nComplete name : E:Bang Bang.avi\nFormat : AVI\nFormat/Info : Audio Video Interleave\nFile size : 697 MiB\nDuration : 2h 32mn\nOverall bit rate : 638 Kbps\n\nVideo\nID : 0\nFormat : MPEG-4 Visual\nFormat profile : Advanced Simple@L5\nFormat settings, BVOP : 1\nFormat settings, QPel : No\nFormat settings, GMC : No warppoints\nFormat settings, Matrix : Default (H.263)\nCodec ID : XVID\nCodec ID/Hint : XviD\nDuration : 2h 32mn\nBit rate : 548 Kbps\nWidth : 656 pixels\nHeight : 256 pixels\nDisplay aspect ratio : 2.563\nFrame rate : 24.000 fps\nColor space : YUV\nChroma subsampling : 4:2:0\nBit depth : 8 bits\nScan type : Progressive\nCompression mode : Lossy\nBits/(Pixel*Frame) : 0.136\nStream size : 598 MiB (86%)\nWriting library : XviD 1.2.1 (UTC 2008-12-04)\n\nAudio\nID : 1\nFormat : MPEG Audio\nFormat version : Version 1\nFormat profile : Layer 3\nMode : Joint stereo\nMode extension : MS Stereo\nCodec ID : 55\nCodec ID/Hint : MP3\nDuration : 2h 32mn\nBit rate mode : Constant\nBit rate : 80.0 Kbps\nChannel(s) : 2 channels\nSampling rate : 32.0 KHz\nCompression mode : Lossy\nStream size : 87.4 MiB (13%)\nAlignment : Aligned on interleaves\nInterleave, duration : 36 ms (0.86 video frame)\nWriting library : LAME3.99r\nEncoding settings : -m j -V 4 -q 2 -lowpass 13.5 -b 80\n\nSample included in torrent!!\n\nThanks to TeamTNT!!\n\nSeed n ENjoy!!","torrent":{"xt":"urn:btih:73df59a4eaa71b26c5b7c2114c952eb03b6b8fd9","amp;dn":"Bang+Bang+%282014%29+1CD+DVDSCR+Rip+Xvid+Mp3%5BStudio+Audio%5D+TeamTNT","amp;tr":["udp%3A%2F%2Ftracker.openbittorrent.com%3A80","udp%3A%2F%2Fopen.demonii.com%3A1337","udp%3A%2F%2Ftracker.coppersurfer.tk%3A6969","udp%3A%2F%2Fexodus.desync.com%3A6969"],"infoHash":"73df59a4eaa71b26c5b7c2114c952eb03b6b8fd9","infoHashBuffer":{"type":"Buffer","data":[115,223,89,164,234,167,27,38,197,183,194,17,76,149,46,176,59,107,143,217]},"announce":[],"urlList":[]}}